<?xml version="1.0" encoding="UTF-8"?>
<svg version="1.1" xmlns="http://www.w3.org/2000/svg" width="500" height="500">
<path d="M0 0 C2.70389397 1.00676903 3.83204274 1.72379283 5.3515625 4.22265625 C5.77179688 5.15980469 6.19203125 6.09695312 6.625 7.0625 C9.02112641 12.10509438 11.630041 16.90002489 14.5 21.6875 C19.48466662 30.02817979 24.22282764 38.49775844 28.9140625 47.0065918 C32.22987736 52.98204627 35.7029092 58.79922874 39.43359375 64.52563477 C41.54422158 67.85967671 43.4063921 71.30472226 45.26953125 74.78125 C50.48686992 84.48573548 55.79150296 94.1546157 61.54492188 103.55273438 C63.02161709 106.03635733 64.39981945 108.55542534 65.765625 111.1015625 C68.86261136 116.80586113 72.16030493 122.37298445 75.5 127.9375 C79.49462708 134.63536824 83.37199929 141.28829577 86.65625 148.3671875 C88.1382518 151.27087708 89.82818651 153.97308879 91.57275391 156.72460938 C94.27769469 161.03696793 96.84807836 165.43016887 99.4375 169.8125 C99.98470703 170.73353516 100.53191406 171.65457031 101.09570312 172.60351562 C104.40415293 178.19851535 107.58334677 183.84774276 110.67602539 189.56469727 C112.23285212 192.42830535 113.84991055 195.25168586 115.5 198.0625 C116.08652344 199.0628125 116.67304688 200.063125 117.27734375 201.09375 C118.85739844 203.7594205 120.45650982 206.41240654 122.0625 209.0625 C124.61844838 213.30443016 127.0005038 217.62194857 129.34375 221.984375 C130.58572605 224.24570875 131.85260403 226.47777846 133.15625 228.703125 C133.70756592 229.64816895 133.70756592 229.64816895 134.27001953 230.61230469 C134.99480036 231.85048529 135.72477951 233.08564074 136.46044922 234.31738281 C138.09200628 237.11229022 139 238.70295134 139 242 C75.64 242 12.28 242 -53 242 C-53 238.80441188 -52.61419043 237.98380572 -51.0234375 235.33984375 C-50.60288086 234.63359863 -50.18232422 233.92735352 -49.74902344 233.19970703 C-49.2955957 232.45317871 -48.84216797 231.70665039 -48.375 230.9375 C-47.91641602 230.17034668 -47.45783203 229.40319336 -46.98535156 228.61279297 C-45.66358888 226.40441389 -44.33365451 224.20121306 -43 222 C-38.43776547 214.45936345 -33.94421461 206.88842923 -30 199 C-26.43792534 197.81264178 -23.21227153 197.86016292 -19.50610352 197.87060547 C-18.3639312 197.86797699 -18.3639312 197.86797699 -17.19868469 197.86529541 C-14.67540215 197.86088707 -12.15218954 197.86381395 -9.62890625 197.8671875 C-7.8683216 197.86651354 -6.10773704 197.86554275 -4.34715271 197.86428833 C-0.64915078 197.86281222 3.04882704 197.86496082 6.74682617 197.86962891 C11.45715253 197.87528853 16.16742144 197.87207074 20.87774563 197.86605644 C24.51974406 197.86241623 28.16172924 197.86360584 31.8037281 197.86618423 C33.53823923 197.86684593 35.27275161 197.86605191 37.00726128 197.86370468 C46.39037813 197.85380496 55.65790682 197.98596134 65 199 C64.38253906 197.9584375 63.76507813 196.916875 63.12890625 195.84375 C58.82295439 188.56176414 54.55641595 181.26465798 50.4375 173.875 C47.48919294 168.58642534 44.44976698 163.366198 41.3125 158.1875 C38.26984057 153.16210013 35.36080839 148.09345407 32.578125 142.91796875 C27.62057927 133.75141761 22.44408975 124.71084692 17.125 115.75 C11.51536153 106.2963907 6.24814018 96.6577221 1 87 C0.50185791 87.92111572 0.50185791 87.92111572 -0.00634766 88.86083984 C-1.54357773 91.70015658 -3.08427045 94.53758081 -4.625 97.375 C-5.14707031 98.34050781 -5.66914063 99.30601562 -6.20703125 100.30078125 C-9.22447943 105.8513958 -12.34782933 111.31145937 -15.62451172 116.71289062 C-17.57454441 119.9553305 -19.41498375 123.2540877 -21.25 126.5625 C-24.76764538 132.86042522 -28.3868783 139.09076807 -32.06201172 145.29785156 C-35.91106602 151.81344597 -39.64820834 158.39049431 -43.38452148 164.97119141 C-46.95165953 171.22870583 -50.63709664 177.4057817 -54.375 183.5625 C-58.0927483 189.6907673 -61.59798045 195.79169391 -64.62109375 202.296875 C-66.12089554 205.23699636 -67.83883446 207.9625259 -69.60620117 210.74707031 C-72.73170438 215.79911859 -75.56500905 221.03128725 -78.45117188 226.22265625 C-79.20043945 227.55103516 -79.20043945 227.55103516 -79.96484375 228.90625 C-80.4043335 229.69322266 -80.84382324 230.48019531 -81.29663086 231.29101562 C-81.85874268 232.18498047 -82.42085449 233.07894531 -83 234 C-83.56228302 235.02510681 -83.56228302 235.02510681 -84.13592529 236.07092285 C-86.14365334 239.31451525 -87.62231859 241.59888828 -91.38774109 242.69519043 C-94.31939633 242.92650826 -97.14757279 242.90031677 -100.0859375 242.78125 C-101.14285797 242.76993042 -102.19977844 242.75861084 -103.28872681 242.74694824 C-106.65268979 242.7022907 -110.01233362 242.6019427 -113.375 242.5 C-115.66009454 242.45985951 -117.94525613 242.42335975 -120.23046875 242.390625 C-125.82177721 242.30259165 -131.41058009 242.16886291 -137 242 C-136.19015357 237.17906821 -134.21806474 233.62272178 -131.6875 229.5 C-130.76691077 227.9682395 -129.84769904 226.43565049 -128.9296875 224.90234375 C-128.20604004 223.69747314 -128.20604004 223.69747314 -127.46777344 222.46826172 C-125.02744168 218.36451022 -122.6715644 214.21332905 -120.3125 210.0625 C-115.60474892 201.80012194 -110.87379266 193.55134805 -106.125 185.3125 C-105.50665283 184.23814697 -104.88830566 183.16379395 -104.2512207 182.05688477 C-100.97402021 176.37483849 -97.64615965 170.72865295 -94.25976562 165.11108398 C-92.83931516 162.73072832 -91.4929924 160.32020799 -90.1875 157.875 C-83.37996715 145.28018471 -76.23043752 132.87293022 -69.1171875 120.44921875 C-67.03328215 116.80925224 -64.95548745 113.16590385 -62.8828125 109.51953125 C-58.01668312 100.96589045 -53.10936076 92.44936956 -48.00878906 84.03320312 C-45.42634575 79.75669589 -43.01904322 75.41019209 -40.66015625 71.0078125 C-38.51721046 67.12529895 -36.26042018 63.3149796 -34 59.5 C-30.69765115 53.924693 -27.49575983 48.3169408 -24.42578125 42.609375 C-20.79247513 35.9599271 -16.89602851 29.45973974 -12.9375 23 C-10.13770891 18.37101206 -7.76852175 13.57466548 -5.390625 8.71875 C-3.80207202 5.61303968 -2.03956216 2.82400914 0 0 Z " fill="#090909" transform="translate(249,129)"/>
</svg>
